<?xml version="1.0" standalone="no"?>
<!DOCTYPE svg PUBLIC "-//W3C//DTD SVG 20010904//EN"
 "http://www.w3.org/TR/2001/REC-SVG-20010904/DTD/svg10.dtd">
<svg version="1.0" xmlns="http://www.w3.org/2000/svg"
 width="700.000000pt" height="700.000000pt" viewBox="0 0 700.000000 700.000000"
 preserveAspectRatio="xMidYMid meet">
<metadata>
Created by potrace 1.14, written by Peter Selinger 2001-2017
</metadata>
<g transform="translate(0.000000,700.000000) scale(0.100000,-0.100000)"
fill="#000000" stroke="none">
<path d="M1525 6984 c-375 -50 -704 -206 -976 -461 -269 -254 -449 -585 -521
-961 l-23 -117 0 -1945 0 -1945 23 -117 c149 -777 760 -1342 1544 -1427 128
-14 3723 -15 3858 -1 135 14 237 36 374 81 648 212 1113 793 1186 1481 13 126
13 3730 0 3856 -87 826 -728 1471 -1552 1561 -156 17 -3783 13 -3913 -5z
m1444 -884 c73 -37 121 -116 121 -200 -1 -83 -14 -98 -658 -742 l-617 -618
617 -617 c644 -645 657 -660 658 -743 0 -66 -20 -113 -70 -161 -74 -72 -159
-85 -250 -38 -44 23 -1443 1423 -1464 1466 -20 41 -21 132 -1 181 21 50 1412
1444 1470 1472 54 27 143 27 194 0z m1259 -2079 c46 -24 1444 -1423 1466
-1468 20 -41 21 -132 1 -181 -22 -51 -1413 -1444 -1471 -1472 -54 -27 -142
-27 -193 0 -71 36 -121 116 -121 194 0 89 -13 74 649 739 l626 627 -617 618
c-644 644 -657 659 -658 742 0 66 20 113 70 161 72 70 161 85 248 40z"/>
</g>
</svg>
