<svg width="488" height="65" viewBox="0 0 488 65" fill="none" xmlns="http://www.w3.org/2000/svg">
<rect x="0.51062" y="0.432007" width="64" height="64" rx="16" fill="#E11D48"/>
<path fill-rule="evenodd" clip-rule="evenodd" d="M28.1748 9.01779C28.9559 9.79884 28.9559 11.0652 28.1748 11.8462L17.089 22.932L28.1748 34.0178C28.9559 34.7988 28.9559 36.0652 28.1748 36.8462C27.3938 37.6273 26.1275 37.6273 25.3464 36.8462L12.8464 24.3462C12.0654 23.5652 12.0654 22.2988 12.8464 21.5178L25.3464 9.01779C26.1275 8.23674 27.3938 8.23674 28.1748 9.01779ZM36.8464 28.0178C37.6275 27.2367 38.8938 27.2367 39.6748 28.0178L52.1748 40.5178C52.9559 41.2988 52.9559 42.5652 52.1748 43.3462L39.6748 55.8462C38.8938 56.6273 37.6275 56.6273 36.8464 55.8462C36.0654 55.0652 36.0654 53.7988 36.8464 53.0178L47.9322 41.932L36.8464 30.8462C36.0654 30.0652 36.0654 28.7988 36.8464 28.0178Z" fill="white"/>
<path d="M119.455 60.432C114.633 60.432 110.537 59.6024 107.166 57.9431C103.848 56.232 101.307 53.8209 99.544 50.7098C97.781 47.5468 96.7958 43.7616 96.5884 39.3542C96.5365 37.2283 96.5106 34.9468 96.5106 32.5098C96.5106 30.0727 96.5365 27.7394 96.5884 25.5098C96.7958 21.1542 97.781 17.395 99.544 14.232C101.359 11.069 103.925 8.65793 107.244 6.99867C110.614 5.28756 114.685 4.43201 119.455 4.43201C122.981 4.43201 126.144 4.89867 128.944 5.83201C131.744 6.76534 134.129 8.06164 136.1 9.7209C138.07 11.3283 139.6 13.2209 140.688 15.3987C141.777 17.5765 142.348 19.9357 142.4 22.4765C142.451 22.9431 142.296 23.332 141.933 23.6431C141.622 23.9542 141.233 24.1098 140.766 24.1098H133.377C132.807 24.1098 132.34 23.9802 131.977 23.7209C131.614 23.4098 131.355 22.9172 131.2 22.2431C130.37 18.8209 128.944 16.4876 126.922 15.2431C124.9 13.9987 122.385 13.3765 119.377 13.3765C115.903 13.3765 113.129 14.3616 111.055 16.332C108.981 18.2505 107.866 21.4394 107.711 25.8987C107.555 30.1505 107.555 34.5061 107.711 38.9653C107.866 43.4246 108.981 46.6394 111.055 48.6098C113.129 50.5283 115.903 51.4876 119.377 51.4876C122.385 51.4876 124.9 50.8653 126.922 49.6209C128.944 48.3246 130.37 45.9913 131.2 42.6209C131.355 41.895 131.614 41.4024 131.977 41.1431C132.34 40.8839 132.807 40.7542 133.377 40.7542H140.766C141.233 40.7542 141.622 40.9098 141.933 41.2209C142.296 41.532 142.451 41.9209 142.4 42.3876C142.348 44.9283 141.777 47.2876 140.688 49.4653C139.6 51.6431 138.07 53.5616 136.1 55.2209C134.129 56.8283 131.744 58.0987 128.944 59.032C126.144 59.9653 122.981 60.432 119.455 60.432Z" fill="black"/>
<path d="M168.579 60.432C164.431 60.432 160.931 59.7061 158.079 58.2542C155.279 56.8024 153.127 54.7542 151.623 52.1098C150.172 49.4653 149.342 46.3802 149.135 42.8542C149.083 41.9209 149.057 40.7802 149.057 39.432C149.057 38.0839 149.083 36.9431 149.135 36.0098C149.342 32.432 150.198 29.3468 151.701 26.7542C153.257 24.1098 155.435 22.0616 158.235 20.6098C161.086 19.1579 164.535 18.432 168.579 18.432C172.623 18.432 176.046 19.1579 178.846 20.6098C181.698 22.0616 183.875 24.1098 185.379 26.7542C186.935 29.3468 187.816 32.432 188.023 36.0098C188.075 36.9431 188.101 38.0839 188.101 39.432C188.101 40.7802 188.075 41.9209 188.023 42.8542C187.816 46.3802 186.961 49.4653 185.457 52.1098C184.005 54.7542 181.853 56.8024 179.001 58.2542C176.201 59.7061 172.727 60.432 168.579 60.432ZM168.579 52.732C171.327 52.732 173.453 51.8765 174.957 50.1653C176.461 48.4024 177.29 45.8357 177.446 42.4653C177.498 41.6876 177.523 40.6765 177.523 39.432C177.523 38.1876 177.498 37.1765 177.446 36.3987C177.29 33.0802 176.461 30.5394 174.957 28.7765C173.453 27.0135 171.327 26.132 168.579 26.132C165.831 26.132 163.705 27.0135 162.201 28.7765C160.698 30.5394 159.868 33.0802 159.712 36.3987C159.661 37.1765 159.635 38.1876 159.635 39.432C159.635 40.6765 159.661 41.6876 159.712 42.4653C159.868 45.8357 160.698 48.4024 162.201 50.1653C163.705 51.8765 165.831 52.732 168.579 52.732Z" fill="black"/>
<path d="M211.73 60.432C209.034 60.432 206.648 59.9913 204.574 59.1098C202.552 58.1765 200.867 56.8802 199.519 55.2209C198.171 53.5616 197.134 51.6172 196.408 49.3876C195.682 47.1061 195.267 44.6172 195.163 41.9209C195.111 40.9876 195.085 40.1579 195.085 39.432C195.085 38.6542 195.111 37.7987 195.163 36.8653C195.267 34.2727 195.656 31.8616 196.33 29.632C197.056 27.4024 198.093 25.4579 199.441 23.7987C200.841 22.0876 202.552 20.7653 204.574 19.832C206.648 18.8987 209.034 18.432 211.73 18.432C214.53 18.432 216.889 18.9246 218.808 19.9098C220.778 20.8431 222.411 22.0616 223.708 23.5653V6.29867C223.708 5.78015 223.863 5.33941 224.174 4.97645C224.537 4.61349 225.004 4.43201 225.574 4.43201H232.185C232.704 4.43201 233.145 4.61349 233.508 4.97645C233.871 5.33941 234.052 5.78015 234.052 6.29867V57.7876C234.052 58.3061 233.871 58.7468 233.508 59.1098C233.145 59.4727 232.704 59.6542 232.185 59.6542H226.041C225.471 59.6542 225.004 59.4727 224.641 59.1098C224.33 58.7468 224.174 58.3061 224.174 57.7876V54.9098C222.878 56.5172 221.219 57.8394 219.197 58.8765C217.226 59.9135 214.737 60.432 211.73 60.432ZM214.608 52.1098C216.785 52.1098 218.522 51.6172 219.819 50.632C221.115 49.6468 222.074 48.4024 222.697 46.8987C223.319 45.3431 223.656 43.7616 223.708 42.1542C223.76 41.2209 223.785 40.2357 223.785 39.1987C223.785 38.1098 223.76 37.0987 223.708 36.1653C223.656 34.6098 223.293 33.132 222.619 31.732C221.945 30.2802 220.96 29.0876 219.663 28.1542C218.367 27.2209 216.682 26.7542 214.608 26.7542C212.43 26.7542 210.693 27.2468 209.397 28.232C208.152 29.1653 207.245 30.4098 206.674 31.9653C206.104 33.5209 205.767 35.232 205.663 37.0987C205.611 38.6542 205.611 40.2098 205.663 41.7653C205.767 43.632 206.104 45.3431 206.674 46.8987C207.245 48.4542 208.152 49.7246 209.397 50.7098C210.693 51.6431 212.43 52.1098 214.608 52.1098Z" fill="black"/>
<path d="M261.841 60.432C256.085 60.432 251.522 58.7728 248.152 55.4542C244.781 52.1357 242.967 47.4172 242.707 41.2987C242.655 40.7802 242.63 40.132 242.63 39.3542C242.63 38.5246 242.655 37.8765 242.707 37.4098C242.915 33.5209 243.796 30.1505 245.352 27.2987C246.959 24.4468 249.163 22.269 251.963 20.7653C254.763 19.2098 258.055 18.432 261.841 18.432C266.041 18.432 269.567 19.3135 272.418 21.0765C275.27 22.7876 277.422 25.1987 278.874 28.3098C280.326 31.369 281.052 34.9209 281.052 38.9653V40.5987C281.052 41.1172 280.87 41.5579 280.507 41.9209C280.144 42.2839 279.678 42.4653 279.107 42.4653H253.285C253.285 42.4653 253.285 42.5431 253.285 42.6987C253.285 42.8542 253.285 42.9839 253.285 43.0876C253.337 44.9024 253.674 46.5876 254.296 48.1431C254.97 49.6468 255.93 50.8653 257.174 51.7987C258.47 52.732 260 53.1987 261.763 53.1987C263.215 53.1987 264.433 52.9913 265.418 52.5765C266.404 52.1098 267.207 51.5913 267.83 51.0209C268.452 50.4505 268.893 49.9839 269.152 49.6209C269.618 48.9987 269.981 48.6357 270.241 48.532C270.552 48.3765 270.993 48.2987 271.563 48.2987H278.252C278.77 48.2987 279.185 48.4542 279.496 48.7653C279.859 49.0765 280.015 49.4653 279.963 49.932C279.911 50.7616 279.47 51.7727 278.641 52.9653C277.863 54.1579 276.722 55.3246 275.218 56.4653C273.715 57.6061 271.822 58.5653 269.541 59.3431C267.311 60.069 264.744 60.432 261.841 60.432ZM253.285 35.932H270.474V35.6987C270.474 33.6765 270.137 31.9135 269.463 30.4098C268.789 28.9061 267.804 27.7135 266.507 26.832C265.211 25.9505 263.655 25.5098 261.841 25.5098C260.026 25.5098 258.47 25.9505 257.174 26.832C255.878 27.7135 254.893 28.9061 254.218 30.4098C253.596 31.9135 253.285 33.6765 253.285 35.6987V35.932Z" fill="black"/>
<path d="M292.108 59.6542C291.589 59.6542 291.148 59.4727 290.786 59.1098C290.423 58.7468 290.241 58.3061 290.241 57.7876V7.15423C290.241 6.58386 290.423 6.11719 290.786 5.75423C291.148 5.39127 291.589 5.20978 292.108 5.20978H312.952C316.997 5.20978 320.523 5.85793 323.53 7.15423C326.537 8.39867 328.871 10.3172 330.53 12.9098C332.189 15.4505 333.019 18.6394 333.019 22.4765C333.019 26.3653 332.189 29.5802 330.53 32.1209C328.871 34.6098 326.537 36.4765 323.53 37.7209C320.523 38.9653 316.997 39.5876 312.952 39.5876H301.363V57.7876C301.363 58.3061 301.182 58.7468 300.819 59.1098C300.508 59.4727 300.067 59.6542 299.497 59.6542H292.108ZM301.208 30.9542H312.563C315.571 30.9542 317.878 30.2542 319.486 28.8542C321.093 27.4024 321.897 25.2765 321.897 22.4765C321.897 19.8839 321.145 17.8098 319.641 16.2542C318.137 14.6468 315.778 13.8431 312.563 13.8431H301.208V30.9542Z" fill="black"/>
<path d="M355.588 60.432C352.425 60.432 349.677 59.732 347.344 58.332C345.062 56.8802 343.3 54.8579 342.055 52.2653C340.811 49.6209 340.188 46.5098 340.188 42.932V21.0765C340.188 20.5579 340.37 20.1172 340.733 19.7542C341.096 19.3913 341.537 19.2098 342.055 19.2098H348.9C349.47 19.2098 349.911 19.3913 350.222 19.7542C350.585 20.1172 350.766 20.5579 350.766 21.0765V42.4653C350.766 48.895 353.592 52.1098 359.244 52.1098C361.94 52.1098 364.066 51.2542 365.622 49.5431C367.229 47.832 368.033 45.4728 368.033 42.4653V21.0765C368.033 20.5579 368.214 20.1172 368.577 19.7542C368.94 19.3913 369.381 19.2098 369.9 19.2098H376.744C377.262 19.2098 377.703 19.3913 378.066 19.7542C378.429 20.1172 378.611 20.5579 378.611 21.0765V57.7876C378.611 58.3061 378.429 58.7468 378.066 59.1098C377.703 59.4727 377.262 59.6542 376.744 59.6542H370.444C369.874 59.6542 369.407 59.4727 369.044 59.1098C368.733 58.7468 368.577 58.3061 368.577 57.7876V54.5987C367.177 56.4135 365.44 57.8394 363.366 58.8765C361.292 59.9135 358.7 60.432 355.588 60.432Z" fill="black"/>
<path d="M390.829 59.6542C390.311 59.6542 389.87 59.4727 389.507 59.1098C389.144 58.7468 388.962 58.3061 388.962 57.7876V6.29867C388.962 5.78015 389.144 5.33941 389.507 4.97645C389.87 4.61349 390.311 4.43201 390.829 4.43201H397.285C397.803 4.43201 398.244 4.61349 398.607 4.97645C398.97 5.33941 399.151 5.78015 399.151 6.29867V57.7876C399.151 58.3061 398.97 58.7468 398.607 59.1098C398.244 59.4727 397.803 59.6542 397.285 59.6542H390.829Z" fill="black"/>
<path d="M424.791 60.432C421.679 60.432 419.009 60.069 416.779 59.3431C414.602 58.6172 412.813 57.7098 411.413 56.6209C410.013 55.532 408.976 54.4431 408.302 53.3542C407.628 52.2653 407.265 51.3579 407.213 50.632C407.161 50.0616 407.317 49.6209 407.679 49.3098C408.094 48.9468 408.535 48.7653 409.002 48.7653H415.146C415.354 48.7653 415.535 48.7913 415.691 48.8431C415.846 48.895 416.054 49.0505 416.313 49.3098C416.987 49.8802 417.687 50.4765 418.413 51.0987C419.191 51.7209 420.098 52.2653 421.135 52.732C422.172 53.1468 423.468 53.3542 425.024 53.3542C427.046 53.3542 428.731 52.9653 430.079 52.1876C431.479 51.3579 432.179 50.1913 432.179 48.6876C432.179 47.5987 431.868 46.7172 431.246 46.0431C430.676 45.369 429.587 44.7728 427.979 44.2542C426.372 43.6839 424.091 43.0876 421.135 42.4653C418.231 41.7913 415.82 40.9357 413.902 39.8987C411.983 38.8616 410.557 37.5653 409.624 36.0098C408.691 34.4542 408.224 32.6394 408.224 30.5653C408.224 28.5431 408.82 26.6246 410.013 24.8098C411.257 22.9431 413.072 21.4135 415.457 20.2209C417.894 19.0283 420.902 18.432 424.479 18.432C427.279 18.432 429.716 18.795 431.791 19.5209C433.865 20.195 435.576 21.0505 436.924 22.0876C438.324 23.1246 439.387 24.1876 440.113 25.2765C440.839 26.3135 441.228 27.2209 441.279 27.9987C441.331 28.569 441.176 29.0357 440.813 29.3987C440.45 29.7098 440.035 29.8653 439.568 29.8653H433.813C433.554 29.8653 433.32 29.8135 433.113 29.7098C432.905 29.6061 432.698 29.4765 432.491 29.3209C431.92 28.8024 431.298 28.2579 430.624 27.6876C429.95 27.1172 429.12 26.6246 428.135 26.2098C427.202 25.7431 425.957 25.5098 424.402 25.5098C422.431 25.5098 420.928 25.9505 419.891 26.832C418.854 27.6616 418.335 28.7246 418.335 30.0209C418.335 30.9024 418.568 31.6802 419.035 32.3542C419.554 32.9765 420.565 33.5727 422.068 34.1431C423.572 34.7135 425.854 35.3098 428.913 35.932C432.387 36.5542 435.135 37.4876 437.157 38.732C439.231 39.9246 440.683 41.3246 441.513 42.932C442.394 44.4876 442.835 46.2246 442.835 48.1431C442.835 50.4765 442.135 52.5765 440.735 54.4431C439.387 56.3098 437.365 57.7876 434.668 58.8765C432.024 59.9135 428.731 60.432 424.791 60.432Z" fill="black"/>
<path d="M468.286 60.432C462.53 60.432 457.967 58.7728 454.597 55.4542C451.227 52.1357 449.412 47.4172 449.153 41.2987C449.101 40.7802 449.075 40.132 449.075 39.3542C449.075 38.5246 449.101 37.8765 449.153 37.4098C449.36 33.5209 450.242 30.1505 451.797 27.2987C453.404 24.4468 455.608 22.269 458.408 20.7653C461.208 19.2098 464.501 18.432 468.286 18.432C472.486 18.432 476.012 19.3135 478.864 21.0765C481.716 22.7876 483.867 25.1987 485.319 28.3098C486.771 31.369 487.497 34.9209 487.497 38.9653V40.5987C487.497 41.1172 487.316 41.5579 486.953 41.9209C486.59 42.2839 486.123 42.4653 485.553 42.4653H459.73C459.73 42.4653 459.73 42.5431 459.73 42.6987C459.73 42.8542 459.73 42.9839 459.73 43.0876C459.782 44.9024 460.119 46.5876 460.742 48.1431C461.416 49.6468 462.375 50.8653 463.619 51.7987C464.916 52.732 466.445 53.1987 468.208 53.1987C469.66 53.1987 470.879 52.9913 471.864 52.5765C472.849 52.1098 473.653 51.5913 474.275 51.0209C474.897 50.4505 475.338 49.9839 475.597 49.6209C476.064 48.9987 476.427 48.6357 476.686 48.532C476.997 48.3765 477.438 48.2987 478.008 48.2987H484.697C485.216 48.2987 485.63 48.4542 485.942 48.7653C486.304 49.0765 486.46 49.4653 486.408 49.932C486.356 50.7616 485.916 51.7727 485.086 52.9653C484.308 54.1579 483.167 55.3246 481.664 56.4653C480.16 57.6061 478.267 58.5653 475.986 59.3431C473.756 60.069 471.19 60.432 468.286 60.432ZM459.73 35.932H476.919V35.6987C476.919 33.6765 476.582 31.9135 475.908 30.4098C475.234 28.9061 474.249 27.7135 472.953 26.832C471.656 25.9505 470.101 25.5098 468.286 25.5098C466.471 25.5098 464.916 25.9505 463.619 26.832C462.323 27.7135 461.338 28.9061 460.664 30.4098C460.042 31.9135 459.73 33.6765 459.73 35.6987V35.932Z" fill="black"/>
</svg>
