<svg width="64" height="64" viewBox="0 0 64 64" fill="none" xmlns="http://www.w3.org/2000/svg">
<rect width="64" height="64" rx="16" fill="#E11D48"/>
<path fill-rule="evenodd" clip-rule="evenodd" d="M27.6642 8.58579C28.4453 9.36683 28.4453 10.6332 27.6642 11.4142L16.5784 22.5L27.6642 33.5858C28.4453 34.3668 28.4453 35.6332 27.6642 36.4142C26.8832 37.1953 25.6168 37.1953 24.8358 36.4142L12.3358 23.9142C11.5547 23.1332 11.5547 21.8668 12.3358 21.0858L24.8358 8.58579C25.6168 7.80474 26.8832 7.80474 27.6642 8.58579ZM36.3358 27.5858C37.1168 26.8047 38.3832 26.8047 39.1642 27.5858L51.6642 40.0858C52.4453 40.8668 52.4453 42.1332 51.6642 42.9142L39.1642 55.4142C38.3832 56.1953 37.1168 56.1953 36.3358 55.4142C35.5547 54.6332 35.5547 53.3668 36.3358 52.5858L47.4216 41.5L36.3358 30.4142C35.5547 29.6332 35.5547 28.3668 36.3358 27.5858Z" fill="white"/>
</svg>
