<svg width="65" height="65" viewBox="0 0 65 65" fill="none" xmlns="http://www.w3.org/2000/svg">
<rect x="0.503845" y="0.432007" width="64" height="64" rx="16" fill="#E11D48"/>
<path fill-rule="evenodd" clip-rule="evenodd" d="M28.1681 9.01779C28.9491 9.79884 28.9491 11.0652 28.1681 11.8462L17.0823 22.932L28.1681 34.0178C28.9491 34.7988 28.9491 36.0652 28.1681 36.8462C27.387 37.6273 26.1207 37.6273 25.3396 36.8462L12.8396 24.3462C12.0586 23.5652 12.0586 22.2988 12.8396 21.5178L25.3396 9.01779C26.1207 8.23674 27.387 8.23674 28.1681 9.01779ZM36.8396 28.0178C37.6207 27.2367 38.887 27.2367 39.6681 28.0178L52.1681 40.5178C52.9491 41.2988 52.9491 42.5652 52.1681 43.3462L39.6681 55.8462C38.887 56.6273 37.6207 56.6273 36.8396 55.8462C36.0586 55.0652 36.0586 53.7988 36.8396 53.0178L47.9254 41.932L36.8396 30.8462C36.0586 30.0652 36.0586 28.7988 36.8396 28.0178Z" fill="white"/>
</svg>
